{
	"asset":{
		"generator":"Khronos glTF Blender I/O v4.2.60",
		"version":"2.0"
	},
	"scene":0,
	"scenes":[
		{
			"name":"Scene",
			"nodes":[
				0,
				1
			]
		}
	],
	"nodes":[
		{
			"mesh":0,
			"name":"Plane",
			"rotation":[
				-0.6536116600036621,
				0.6536116600036621,
				-0.2697995901107788,
				0.2697996199131012
			],
			"translation":[
				0,
				0.29446083307266235,
				0
			]
		},
		{
			"mesh":1,
			"name":"Plane.004"
		}
	],
	"materials":[
		{
			"doubleSided":true,
			"name":"Material.001",
			"pbrMetallicRoughness":{
				"baseColorFactor":[
					0.1562655121088028,
					0.1562655121088028,
					0.1562655121088028,
					1
				],
				"metallicFactor":0,
				"roughnessFactor":0.4291338622570038
			}
		}
	],
	"meshes":[
		{
			"name":"Plane",
			"primitives":[
				{
					"attributes":{
						"POSITION":0,
						"NORMAL":1,
						"TEXCOORD_0":2
					},
					"indices":3,
					"material":0
				}
			]
		},
		{
			"name":"Plane.004",
			"primitives":[
				{
					"attributes":{
						"POSITION":4,
						"NORMAL":5,
						"TEXCOORD_0":6
					},
					"indices":7
				}
			]
		}
	],
	"accessors":[
		{
			"bufferView":0,
			"componentType":5126,
			"count":1410,
			"max":[
				0.2899658679962158,
				0.25312963128089905,
				0.25405269861221313
			],
			"min":[
				-0.2899658679962158,
				-0.25314128398895264,
				-0.25405269861221313
			],
			"type":"VEC3"
		},
		{
			"bufferView":1,
			"componentType":5126,
			"count":1410,
			"type":"VEC3"
		},
		{
			"bufferView":2,
			"componentType":5126,
			"count":1410,
			"type":"VEC2"
		},
		{
			"bufferView":3,
			"componentType":5123,
			"count":3024,
			"type":"SCALAR"
		},
		{
			"bufferView":4,
			"componentType":5126,
			"count":4,
			"max":[
				1,
				0,
				1
			],
			"min":[
				-1,
				0,
				-1
			],
			"type":"VEC3"
		},
		{
			"bufferView":5,
			"componentType":5126,
			"count":4,
			"type":"VEC3"
		},
		{
			"bufferView":6,
			"componentType":5126,
			"count":4,
			"type":"VEC2"
		},
		{
			"bufferView":7,
			"componentType":5123,
			"count":6,
			"type":"SCALAR"
		}
	],
	"bufferViews":[
		{
			"buffer":0,
			"byteLength":16920,
			"byteOffset":0,
			"target":34962
		},
		{
			"buffer":0,
			"byteLength":16920,
			"byteOffset":16920,
			"target":34962
		},
		{
			"buffer":0,
			"byteLength":11280,
			"byteOffset":33840,
			"target":34962
		},
		{
			"buffer":0,
			"byteLength":6048,
			"byteOffset":45120,
			"target":34963
		},
		{
			"buffer":0,
			"byteLength":48,
			"byteOffset":51168,
			"target":34962
		},
		{
			"buffer":0,
			"byteLength":48,
			"byteOffset":51216,
			"target":34962
		},
		{
			"buffer":0,
			"byteLength":32,
			"byteOffset":51264,
			"target":34962
		},
		{
			"buffer":0,
			"byteLength":12,
			"byteOffset":51296,
			"target":34963
		}
	],
	"buffers":[
		{
			"byteLength":51308,
			"uri":"test.bin"
		}
	]
}
