{
	"asset":{
		"generator":"Khronos glTF Blender I/O v4.2.60",
		"version":"2.0"
	},
	"scene":0,
	"scenes":[
		{
			"name":"Scene",
			"nodes":[
				0,
				1,
				2,
				3
			]
		}
	],
	"nodes":[
		{
			"mesh":0,
			"name":"Plane",
			"rotation":[
				-0.6536116600036621,
				0.6536116600036621,
				-0.2697995901107788,
				0.2697996199131012
			],
			"translation":[
				0,
				0.29446083307266235,
				0
			]
		},
		{
			"mesh":1,
			"name":"Plane.001"
		},
		{
			"mesh":2,
			"name":"Plane.002"
		},
		{
			"mesh":3,
			"name":"Plane.004"
		}
	],
	"materials":[
		{
			"doubleSided":true,
			"name":"Material.001",
			"pbrMetallicRoughness":{
				"baseColorFactor":[
					0.021758709102869034,
					0.021758709102869034,
					0.021758709102869034,
					1
				],
				"metallicFactor":0.6692913174629211,
				"roughnessFactor":0.4291338622570038
			}
		}
	],
	"meshes":[
		{
			"name":"Plane",
			"primitives":[
				{
					"attributes":{
						"POSITION":0,
						"NORMAL":1,
						"TEXCOORD_0":2
					},
					"indices":3,
					"material":0
				}
			]
		},
		{
			"name":"Plane.001",
			"primitives":[
				{
					"attributes":{
						"POSITION":4,
						"NORMAL":5,
						"TEXCOORD_0":6
					},
					"indices":7
				}
			]
		},
		{
			"name":"Plane.002",
			"primitives":[
				{
					"attributes":{
						"POSITION":8,
						"NORMAL":9,
						"TEXCOORD_0":10
					},
					"indices":11,
					"material":0
				}
			]
		},
		{
			"name":"Plane.004",
			"primitives":[
				{
					"attributes":{
						"POSITION":12,
						"NORMAL":13,
						"TEXCOORD_0":14
					},
					"indices":7
				}
			]
		}
	],
	"accessors":[
		{
			"bufferView":0,
			"componentType":5126,
			"count":197,
			"max":[
				0.2899658679962158,
				0.25312963128089905,
				0.25405269861221313
			],
			"min":[
				-0.2899658679962158,
				-0.25312963128089905,
				-0.25405269861221313
			],
			"type":"VEC3"
		},
		{
			"bufferView":1,
			"componentType":5126,
			"count":197,
			"type":"VEC3"
		},
		{
			"bufferView":2,
			"componentType":5126,
			"count":197,
			"type":"VEC2"
		},
		{
			"bufferView":3,
			"componentType":5123,
			"count":426,
			"type":"SCALAR"
		},
		{
			"bufferView":4,
			"componentType":5126,
			"count":4,
			"max":[
				1,
				0,
				1
			],
			"min":[
				-1,
				0,
				-1
			],
			"type":"VEC3"
		},
		{
			"bufferView":5,
			"componentType":5126,
			"count":4,
			"type":"VEC3"
		},
		{
			"bufferView":6,
			"componentType":5126,
			"count":4,
			"type":"VEC2"
		},
		{
			"bufferView":7,
			"componentType":5123,
			"count":6,
			"type":"SCALAR"
		},
		{
			"bufferView":8,
			"componentType":5126,
			"count":130,
			"max":[
				2.008573293685913,
				4.76837158203125e-07,
				-0.035498619079589844
			],
			"min":[
				-3.790743827819824,
				-5.062592029571533,
				-5.116552352905273
			],
			"type":"VEC3"
		},
		{
			"bufferView":9,
			"componentType":5126,
			"count":130,
			"type":"VEC3"
		},
		{
			"bufferView":10,
			"componentType":5126,
			"count":130,
			"type":"VEC2"
		},
		{
			"bufferView":11,
			"componentType":5123,
			"count":282,
			"type":"SCALAR"
		},
		{
			"bufferView":12,
			"componentType":5126,
			"count":4,
			"max":[
				1,
				0,
				1
			],
			"min":[
				-1,
				0,
				-1
			],
			"type":"VEC3"
		},
		{
			"bufferView":13,
			"componentType":5126,
			"count":4,
			"type":"VEC3"
		},
		{
			"bufferView":14,
			"componentType":5126,
			"count":4,
			"type":"VEC2"
		}
	],
	"bufferViews":[
		{
			"buffer":0,
			"byteLength":2364,
			"byteOffset":0,
			"target":34962
		},
		{
			"buffer":0,
			"byteLength":2364,
			"byteOffset":2364,
			"target":34962
		},
		{
			"buffer":0,
			"byteLength":1576,
			"byteOffset":4728,
			"target":34962
		},
		{
			"buffer":0,
			"byteLength":852,
			"byteOffset":6304,
			"target":34963
		},
		{
			"buffer":0,
			"byteLength":48,
			"byteOffset":7156,
			"target":34962
		},
		{
			"buffer":0,
			"byteLength":48,
			"byteOffset":7204,
			"target":34962
		},
		{
			"buffer":0,
			"byteLength":32,
			"byteOffset":7252,
			"target":34962
		},
		{
			"buffer":0,
			"byteLength":12,
			"byteOffset":7284,
			"target":34963
		},
		{
			"buffer":0,
			"byteLength":1560,
			"byteOffset":7296,
			"target":34962
		},
		{
			"buffer":0,
			"byteLength":1560,
			"byteOffset":8856,
			"target":34962
		},
		{
			"buffer":0,
			"byteLength":1040,
			"byteOffset":10416,
			"target":34962
		},
		{
			"buffer":0,
			"byteLength":564,
			"byteOffset":11456,
			"target":34963
		},
		{
			"buffer":0,
			"byteLength":48,
			"byteOffset":12020,
			"target":34962
		},
		{
			"buffer":0,
			"byteLength":48,
			"byteOffset":12068,
			"target":34962
		},
		{
			"buffer":0,
			"byteLength":32,
			"byteOffset":12116,
			"target":34962
		}
	],
	"buffers":[
		{
			"byteLength":12148,
			"uri":"test.bin"
		}
	]
}
